<svg display="none" xmlns="http://www.w3.org/2000/svg">
  <symbol id="microwave" viewBox="0 0 80 56">
    <path d="M8 0C5.87827 0 3.84344 0.842854 2.34315 2.34315C0.842854 3.84344 0 5.87827 0 8V48C0 50.1217 0.842854 52.1566 2.34315 53.6569C3.84344 55.1572 5.87827 56 8 56H72C74.1217 56 76.1566 55.1572 77.6569 53.6569C79.1571 52.1566 80 50.1217 80 48V8C80 5.87827 79.1571 3.84344 77.6569 2.34315C76.1566 0.842854 74.1217 0 72 0H8ZM8 8H56V48H8V8ZM68 8C69.0609 8 70.0783 8.42143 70.8284 9.17157C71.5786 9.92172 72 10.9391 72 12C72 13.0609 71.5786 14.0783 70.8284 14.8284C70.0783 15.5786 69.0609 16 68 16C66.9391 16 65.9217 15.5786 65.1716 14.8284C64.4214 14.0783 64 13.0609 64 12C64 10.9391 64.4214 9.92172 65.1716 9.17157C65.9217 8.42143 66.9391 8 68 8ZM44 16V40H52V16H44ZM68 24C69.0609 24 70.0783 24.4214 70.8284 25.1716C71.5786 25.9217 72 26.9391 72 28C72 29.0609 71.5786 30.0783 70.8284 30.8284C70.0783 31.5786 69.0609 32 68 32C66.9391 32 65.9217 31.5786 65.1716 30.8284C64.4214 30.0783 64 29.0609 64 28C64 26.9391 64.4214 25.9217 65.1716 25.1716C65.9217 24.4214 66.9391 24 68 24Z" />
  </symbol>
  <symbol id="phone" viewBox="0 0 34 56">
    <path d="M26.6894 0C28.4369 0 29.9262 0.635461 31.1574 1.90638C32.3887 3.17731 33.0043 4.68653 33.0043 6.43404V49.566C33.0043 51.3135 32.3887 52.8227 31.1574 54.0936C29.9262 55.3645 28.4369 56 26.6894 56H6.31489C4.56738 56 3.07801 55.3645 1.84681 54.0936C0.615603 52.8227 0 51.3135 0 49.566V6.43404C0 4.68653 0.615603 3.17731 1.84681 1.90638C3.07801 0.635461 4.56738 0 6.31489 0H26.6894ZM16.5021 53.3787C17.5745 53.3787 18.4879 53.0213 19.2426 52.3064C19.9972 51.5915 20.3745 50.6979 20.3745 49.6255C20.3745 48.5532 19.9972 47.6397 19.2426 46.8851C18.4879 46.1305 17.5745 45.7532 16.5021 45.7532C15.4298 45.7532 14.5362 46.1305 13.8213 46.8851C13.1064 47.6397 12.7489 48.5532 12.7489 49.6255C12.7489 50.6979 13.1064 51.5915 13.8213 52.3064C14.5362 53.0213 15.4298 53.3787 16.5021 53.3787ZM28 43.2511V7.62553H5.1234V43.2511H28Z" />
  </symbol>
  <symbol id="speaker" viewBox="0 0 45 56">
    <path d="M0 5.6C0 4.11479 0.589998 2.69041 1.6402 1.6402C2.69041 0.589998 4.11479 0 5.6 0H39.2C40.6852 0 42.1096 0.589998 43.1598 1.6402C44.21 2.69041 44.8 4.11479 44.8 5.6V50.4C44.8 51.8852 44.21 53.3096 43.1598 54.3598C42.1096 55.41 40.6852 56 39.2 56H5.6C4.11479 56 2.69041 55.41 1.6402 54.3598C0.589998 53.3096 0 51.8852 0 50.4V5.6ZM39.2 5.6H5.6V50.4H39.2V5.6Z" />
    <path d="M22.4 28C20.9148 28 19.4904 28.59 18.4402 29.6402C17.39 30.6904 16.8 32.1147 16.8 33.6C16.8 35.0852 17.39 36.5095 18.4402 37.5597C19.4904 38.61 20.9148 39.2 22.4 39.2C23.8852 39.2 25.3096 38.61 26.3598 37.5597C27.41 36.5095 28 35.0852 28 33.6C28 32.1147 27.41 30.6904 26.3598 29.6402C25.3096 28.59 23.8852 28 22.4 28ZM11.2 33.6C11.2 30.6295 12.38 27.7808 14.4804 25.6804C16.5808 23.5799 19.4296 22.4 22.4 22.4C25.3704 22.4 28.2192 23.5799 30.3196 25.6804C32.42 27.7808 33.6 30.6295 33.6 33.6C33.6 36.5704 32.42 39.4191 30.3196 41.5195C28.2192 43.62 25.3704 44.7999 22.4 44.7999C19.4296 44.7999 16.5808 43.62 14.4804 41.5195C12.38 39.4191 11.2 36.5704 11.2 33.6ZM26.6 15.4C26.6 16.5139 26.1575 17.5821 25.3699 18.3698C24.5822 19.1575 23.5139 19.6 22.4 19.6C21.2861 19.6 20.2178 19.1575 19.4302 18.3698C18.6425 17.5821 18.2 16.5139 18.2 15.4C18.2 14.286 18.6425 13.2178 19.4302 12.4301C20.2178 11.6424 21.2861 11.2 22.4 11.2C23.5139 11.2 24.5822 11.6424 25.3699 12.4301C26.1575 13.2178 26.6 14.286 26.6 15.4Z" />
  </symbol>
  <symbol id="wood" viewBox="0 0 45 56">
    <path d="M28 16.8H16.8V11.2H28V16.8ZM44.8 5.6V50.4C44.8 53.508 42.308 56 39.2 56H5.6C2.492 56 0 53.508 0 50.4V5.6C0 4.11479 0.589998 2.69041 1.6402 1.6402C2.69041 0.589998 4.11479 0 5.6 0H39.2C40.6852 0 42.1096 0.589998 43.1598 1.6402C44.21 2.69041 44.8 4.11479 44.8 5.6ZM39.2 30.8H5.6V50.4H39.2V30.8ZM39.2 5.6H5.6V25.2H39.2V5.6ZM28 36.4H16.8V42H28V36.4Z" />
  </symbol>
</svg>